{
  "accessors": [
    {
      "bufferView": 2,
      "componentType": 5126,
      "count": 15987,
      "max": [
        1.1151955127716064,
        3.384734869003296,
        1.7341440916061401
      ],
      "min": [
        -1.1152092218399048,
        0.001586824655532837,
        -1.4991559982299805
      ],
      "type": "VEC3"
    },
    {
      "bufferView": 2,
      "byteOffset": 191844,
      "componentType": 5126,
      "count": 15987,
      "max": [
        0.9999717473983765,
        0.9999976754188538,
        0.9999193549156189
      ],
      "min": [
        -0.9999855160713196,
        -0.9997785091400146,
        -0.9999656677246094
      ],
      "type": "VEC3"
    },
    {
      "bufferView": 3,
      "componentType": 5126,
      "count": 15987,
      "max": [
        0.9999655485153198,
        0.9999532103538513,
        0.9997924566268921,
        1.0
      ],
      "min": [
        -0.9999995231628418,
        -0.9999884963035583,
        -0.9999247193336487,
        -1.0
      ],
      "type": "VEC4"
    },
    {
      "bufferView": 1,
      "componentType": 5126,
      "count": 15987,
      "max": [
        0.9965237379074097,
        0.9953747391700745
      ],
      "min": [
        0.003328084945678711,
        0.006074488162994385
      ],
      "type": "VEC2"
    },
    {
      "bufferView": 1,
      "byteOffset": 127896,
      "componentType": 5126,
      "count": 15987,
      "max": [
        0.9965237379074097,
        0.9953747391700745
      ],
      "min": [
        0.003328084945678711,
        0.006074488162994385
      ],
      "type": "VEC2"
    },
    {
      "bufferView": 1,
      "byteOffset": 255792,
      "componentType": 5126,
      "count": 15987,
      "max": [
        0.9965237379074097,
        0.9953747391700745
      ],
      "min": [
        0.003328084945678711,
        0.006074488162994385
      ],
      "type": "VEC2"
    },
    {
      "bufferView": 1,
      "byteOffset": 383688,
      "componentType": 5126,
      "count": 15987,
      "max": [
        0.9965237379074097,
        0.9953747391700745
      ],
      "min": [
        0.003328084945678711,
        0.006074488162994385
      ],
      "type": "VEC2"
    },
    {
      "bufferView": 1,
      "byteOffset": 511584,
      "componentType": 5126,
      "count": 15987,
      "max": [
        0.9965237379074097,
        0.9953747391700745
      ],
      "min": [
        0.003328084945678711,
        0.006074488162994385
      ],
      "type": "VEC2"
    },
    {
      "bufferView": 0,
      "componentType": 5125,
      "count": 89310,
      "type": "SCALAR"
    }
  ],
  "asset": {
    "extras": {
      "author": "Al-Deezel (https://sketchfab.com/Al-dezel)",
      "license": "CC-BY-4.0 (http://creativecommons.org/licenses/by/4.0/)",
      "source": "https://sketchfab.com/3d-models/human-skull-high-detailed-75e237419bad4cf3b6059652b03e6a35",
      "title": "Human Skull high detailed"
    },
    "generator": "Sketchfab-15.38.0",
    "version": "2.0"
  },
  "bufferViews": [
    {
      "buffer": 0,
      "byteLength": 357240,
      "name": "floatBufferViews",
      "target": 34963
    },
    {
      "buffer": 0,
      "byteLength": 639480,
      "byteOffset": 357240,
      "byteStride": 8,
      "name": "floatBufferViews",
      "target": 34962
    },
    {
      "buffer": 0,
      "byteLength": 383688,
      "byteOffset": 996720,
      "byteStride": 12,
      "name": "floatBufferViews",
      "target": 34962
    },
    {
      "buffer": 0,
      "byteLength": 255792,
      "byteOffset": 1380408,
      "byteStride": 16,
      "name": "floatBufferViews",
      "target": 34962
    }
  ],
  "buffers": [
    {
      "byteLength": 1636200,
      "uri": "scene.bin"
    }
  ],
  "extensionsRequired": [
    "KHR_materials_pbrSpecularGlossiness"
  ],
  "extensionsUsed": [
    "KHR_materials_pbrSpecularGlossiness"
  ],
  "images": [
    {
      "uri": "textures/material_0_diffuse.png"
    },
    {
      "uri": "textures/material_0_specularGlossiness.png"
    },
    {
      "uri": "textures/material_0_normal.png"
    },
    {
      "uri": "textures/material_0_occlusion.png"
    }
  ],
  "materials": [
    {
      "doubleSided": true,
      "extensions": {
        "KHR_materials_pbrSpecularGlossiness": {
          "diffuseFactor": [
            1.0,
            1.0,
            1.0,
            1.0
          ],
          "diffuseTexture": {
            "index": 0
          },
          "glossinessFactor": 1.0,
          "specularFactor": [
            1.0,
            1.0,
            1.0
          ],
          "specularGlossinessTexture": {
            "index": 1
          }
        }
      },
      "name": "material_0",
      "normalTexture": {
        "index": 2
      },
      "occlusionTexture": {
        "index": 3
      }
    }
  ],
  "meshes": [
    {
      "name": "Object_0",
      "primitives": [
        {
          "attributes": {
            "NORMAL": 1,
            "POSITION": 0,
            "TANGENT": 2,
            "TEXCOORD_0": 3,
            "TEXCOORD_1": 4,
            "TEXCOORD_2": 5,
            "TEXCOORD_3": 6,
            "TEXCOORD_4": 7
          },
          "indices": 8,
          "material": 0,
          "mode": 4
        }
      ]
    }
  ],
  "nodes": [
    {
      "children": [
        1
      ],
      "matrix": [
        1.0,
        0.0,
        0.0,
        0.0,
        0.0,
        2.220446049250313e-16,
        -1.0,
        0.0,
        0.0,
        1.0,
        2.220446049250313e-16,
        0.0,
        0.0,
        0.0,
        0.0,
        1.0
      ],
      "name": "Sketchfab_model"
    },
    {
      "children": [
        2
      ],
      "name": "root"
    },
    {
      "children": [
        3
      ],
      "matrix": [
        1.0,
        0.0,
        0.0,
        0.0,
        0.0,
        2.220446049250313e-16,
        1.0,
        0.0,
        0.0,
        -1.0,
        2.220446049250313e-16,
        0.0,
        0.0,
        0.0,
        0.0,
        1.0
      ],
      "name": "GLTF_SceneRootNode"
    },
    {
      "children": [
        4
      ],
      "matrix": [
        0.009999999776482582,
        0.0,
        0.0,
        0.0,
        0.0,
        0.009999999776482582,
        0.0,
        0.0,
        0.0,
        0.0,
        0.009999999776482582,
        0.0,
        0.0,
        0.0,
        0.0,
        1.0
      ],
      "name": "RootNode.0_0"
    },
    {
      "children": [
        5
      ],
      "name": "human_skull.1_1"
    },
    {
      "mesh": 0,
      "name": "Object_5"
    }
  ],
  "samplers": [
    {
      "magFilter": 9729,
      "minFilter": 9987,
      "wrapS": 10497,
      "wrapT": 10497
    }
  ],
  "scene": 0,
  "scenes": [
    {
      "name": "Sketchfab_Scene",
      "nodes": [
        0
      ]
    }
  ],
  "textures": [
    {
      "sampler": 0,
      "source": 0
    },
    {
      "sampler": 0,
      "source": 1
    },
    {
      "sampler": 0,
      "source": 2
    },
    {
      "sampler": 0,
      "source": 3
    }
  ]
}
