{
  "accessors": [
    {
      "bufferView": 2,
      "componentType": 5126,
      "count": 1952,
      "max": [
        0.875,
        1.5,
        2.5625
      ],
      "min": [
        -0.881104588508606,
        -6.881522178649902,
        0.0
      ],
      "type": "VEC3"
    },
    {
      "bufferView": 2,
      "byteOffset": 23424,
      "componentType": 5126,
      "count": 1952,
      "max": [
        1.0,
        1.0,
        1.0
      ],
      "min": [
        -1.0,
        -1.0,
        -1.0
      ],
      "type": "VEC3"
    },
    {
      "bufferView": 1,
      "componentType": 5126,
      "count": 1952,
      "max": [
        0.609375,
        1.0
      ],
      "min": [
        0.0,
        0.6328125
      ],
      "type": "VEC2"
    },
    {
      "bufferView": 0,
      "componentType": 5125,
      "count": 2928,
      "type": "SCALAR"
    }
  ],
  "asset": {
    "extras": {
      "author": "mcskinssketchfab (https://sketchfab.com/mcvehiclessketchfab)",
      "license": "CC-BY-4.0 (http://creativecommons.org/licenses/by/4.0/)",
      "source": "https://sketchfab.com/3d-models/53-reefer-trailer-904c9af9277d410c98c395fd9f8f9250",
      "title": "53’ Reefer Trailer"
    },
    "generator": "Sketchfab-15.42.0",
    "version": "2.0"
  },
  "bufferViews": [
    {
      "buffer": 0,
      "byteLength": 11712,
      "name": "floatBufferViews",
      "target": 34963
    },
    {
      "buffer": 0,
      "byteLength": 15616,
      "byteOffset": 11712,
      "byteStride": 8,
      "name": "floatBufferViews",
      "target": 34962
    },
    {
      "buffer": 0,
      "byteLength": 46848,
      "byteOffset": 27328,
      "byteStride": 12,
      "name": "floatBufferViews",
      "target": 34962
    }
  ],
  "buffers": [
    {
      "byteLength": 74176,
      "uri": "scene.bin"
    }
  ],
  "images": [
    {
      "uri": "textures/m_78c0992e-4f9c-bbf9-ffb2-06f755e0528d_baseColor.png"
    }
  ],
  "materials": [
    {
      "doubleSided": true,
      "name": "m_78c0992e-4f9c-bbf9-ffb2-06f755e0528d",
      "pbrMetallicRoughness": {
        "baseColorTexture": {
          "index": 0
        },
        "metallicFactor": 0.0,
        "roughnessFactor": 0.23982558139534882
      }
    }
  ],
  "meshes": [
    {
      "name": "Object_0",
      "primitives": [
        {
          "attributes": {
            "NORMAL": 1,
            "POSITION": 0,
            "TEXCOORD_0": 2
          },
          "indices": 3,
          "material": 0,
          "mode": 4
        }
      ]
    }
  ],
  "nodes": [
    {
      "children": [
        1
      ],
      "matrix": [
        -1.5187162683426152,
        -9.006926401351417e-19,
        0.004056359038487972,
        0.0,
        0.004056359038487972,
        -3.372227537973538e-16,
        1.5187162683426152,
        0.0,
        0.0,
        1.5187216997146606,
        3.3722395980421386e-16,
        0.0,
        0.0,
        0.0,
        0.0,
        1.0
      ],
      "name": "Sketchfab_model"
    },
    {
      "children": [
        2
      ],
      "name": "53' Reefer Trailer.obj.cleaner.materialmerger.gles"
    },
    {
      "mesh": 0,
      "name": "Object_2"
    }
  ],
  "samplers": [
    {
      "magFilter": 9728,
      "minFilter": 9986,
      "wrapS": 10497,
      "wrapT": 10497
    }
  ],
  "scene": 0,
  "scenes": [
    {
      "name": "Sketchfab_Scene",
      "nodes": [
        0
      ]
    }
  ],
  "textures": [
    {
      "sampler": 0,
      "source": 0
    }
  ]
}
